<svg xmlns="http://www.w3.org/2000/svg" width="52" height="52" viewBox="0 0 52 52">
  <path class="svg-inherit" fill-rule="evenodd" d="M48,12 L28,12 L28,16 L48,16 L48,12 Z M48,8 L48,4 L28,4 L28,8 L48,8 Z M48,20 L28,20 L28,24 L48,24 L48,20 Z M24,4 L4,4 L4,24 L24,24 L24,4 Z M48,28 L4,28 L4,32 L48,32 L48,28 Z M48,36 L4,36 L4,40 L48,40 L48,36 Z M48,44 L4,44 L4,48 L48,48 L48,44 Z M0,2 L0,0 L52,0 L52,2 L52,52 L50,52 L2,52 L-4.4408921e-15,52 L4.95330273e-15,2 Z M16,4 L20,4 L20,8 L16,8 L16,4 Z M16,20 L20,20 L20,24 L16,24 L16,20 Z M8,4 L12,4 L12,8 L8,8 L8,4 Z M8,12 L12,12 L12,16 L8,16 L8,12 Z M8,20 L12,20 L12,24 L8,24 L8,20 Z M12,8 L16,8 L16,12 L12,12 L12,8 Z M20,8 L24,8 L24,12 L20,12 L20,8 Z M20,16 L24,16 L24,20 L20,20 L20,16 Z M4,8 L8,8 L8,12 L4,12 L4,8 Z M4,16 L8,16 L8,20 L4,20 L4,16 Z M12,16 L16,16 L16,20 L12,20 L12,16 Z M16,12 L20,12 L20,16 L16,16 L16,12 Z"/>
</svg>
